<svg width="133" height="39" viewBox="0 0 133 39" fill="none" xmlns="http://www.w3.org/2000/svg">
<g id="my easy svg" clip-path="url(#clip0_242_869)">
<path id="Vector" d="M54.5332 10.5104C54.6863 10.8402 54.8331 11.1777 54.9735 11.5229C55.1139 11.1692 55.2631 10.8262 55.4202 10.4926C55.5774 10.1589 55.7385 9.83611 55.9044 9.52259L60.5446 0.651034C60.6275 0.49853 60.7121 0.380087 60.799 0.295707C60.886 0.211327 60.9833 0.149396 61.091 0.109141C61.1987 0.0688864 61.3207 0.048759 61.4571 0.048759H65.1361V17.5813H61.4388V7.48894C61.4388 6.99969 61.4635 6.46941 61.513 5.89965L56.7236 14.9191C56.5745 15.2001 56.3742 15.413 56.1222 15.5569C55.8693 15.7017 55.5821 15.7737 55.2599 15.7737H54.6887C54.3665 15.7737 54.0785 15.7017 53.8264 15.5569C53.5736 15.4122 53.3733 15.2001 53.225 14.9191L48.4109 5.88804C48.4436 6.16905 48.4683 6.44773 48.4851 6.72487C48.5018 7.00201 48.5098 7.2567 48.5098 7.48972V17.5805H44.8125V0.0472107H48.4915C48.6279 0.0472107 48.7499 0.0673381 48.8576 0.107593C48.9653 0.147848 49.0626 0.209778 49.1496 0.294159C49.2365 0.378539 49.3211 0.496981 49.404 0.649485L54.0569 9.55742C54.2221 9.86321 54.3816 10.1806 54.5348 10.5096L54.5332 10.5104Z" fill="white"/>
<path id="Vector_2" d="M73.3749 20.8187C73.2592 21.0672 73.118 21.2499 72.9529 21.3668C72.787 21.4829 72.523 21.5418 72.1584 21.5418H69.2795L71.7612 16.4844L66.624 5.09302H70.0238C70.3213 5.09302 70.5527 5.15727 70.7186 5.28578C70.8837 5.41428 70.9994 5.56679 71.0664 5.74329L73.1755 11.1258C73.3741 11.6236 73.5352 12.1214 73.6597 12.6191C73.7426 12.3621 73.8336 12.1098 73.9325 11.8605C74.0314 11.612 74.1263 11.3588 74.218 11.1018L76.1285 5.74329C76.1947 5.55905 76.3248 5.40422 76.5194 5.27958C76.714 5.15495 76.9222 5.09302 77.1456 5.09302H80.2478L73.3741 20.8195L73.3749 20.8187Z" fill="white"/>
<path id="Vector_3" d="M93.4762 0.035614V3.1662H86.0561V7.26059H91.7388V10.2712H86.0561V14.45H93.4762V17.5805H81.8379V0.035614H93.4762Z" fill="white"/>
<path id="Vector_4" d="M104.742 17.5798C104.378 17.5798 104.103 17.5318 103.917 17.435C103.731 17.339 103.576 17.1385 103.452 16.8327L103.179 16.1461C102.857 16.4108 102.547 16.6438 102.248 16.8443C101.951 17.0448 101.642 17.2159 101.324 17.356C101.006 17.4969 100.667 17.6007 100.307 17.6688C99.9471 17.7369 99.5482 17.771 99.1095 17.771C98.5224 17.771 97.9887 17.6967 97.5085 17.5472C97.0283 17.3978 96.6215 17.1788 96.2864 16.8892C95.9514 16.5989 95.693 16.239 95.5111 15.8078C95.3292 15.3766 95.2383 14.8796 95.2383 14.316C95.2383 13.8732 95.3539 13.418 95.5861 12.9505C95.8174 12.4836 96.2186 12.0587 96.7898 11.6762C97.3609 11.2938 98.1299 10.9733 99.0975 10.7155C100.065 10.4577 101.286 10.3292 102.758 10.3292V9.79432C102.758 9.05734 102.603 8.52396 102.293 8.19651C101.983 7.86905 101.542 7.70416 100.971 7.70416C100.516 7.70416 100.144 7.75216 99.8545 7.84892C99.565 7.94491 99.3065 8.05329 99.0792 8.17406C98.8518 8.29482 98.6301 8.4032 98.4155 8.49919C98.2001 8.59519 97.944 8.64396 97.6465 8.64396C97.3817 8.64396 97.1567 8.58202 96.9701 8.45739C96.7842 8.33275 96.6374 8.1787 96.5297 7.99368L95.835 6.82552C96.6127 6.15899 97.475 5.66355 98.4219 5.33841C99.3687 5.01328 100.384 4.85071 101.468 4.85071C102.246 4.85071 102.946 4.97302 103.572 5.21765C104.196 5.46227 104.726 5.80366 105.16 6.24105C105.594 6.67843 105.927 7.19865 106.159 7.80015C106.39 8.40243 106.506 9.06044 106.506 9.77496V17.5774H104.744L104.742 17.5798ZM100.324 15.3038C100.821 15.3038 101.255 15.2194 101.627 15.0507C102 14.8819 102.375 14.6094 102.756 14.2316V12.5216C101.987 12.5216 101.353 12.5704 100.857 12.6671C100.361 12.7639 99.9678 12.8854 99.6782 13.0317C99.3887 13.1773 99.1885 13.3437 99.0768 13.5295C98.9651 13.7161 98.9093 13.9181 98.9093 14.1364C98.9093 14.5661 99.0289 14.8672 99.269 15.0414C99.5091 15.2156 99.8601 15.3023 100.324 15.3023L100.324 15.3038Z" fill="white"/>
<path id="Vector_5" d="M117.099 7.82571C117.001 7.97821 116.894 8.08659 116.783 8.15084C116.671 8.21509 116.528 8.24683 116.354 8.24683C116.181 8.24683 115.991 8.2089 115.809 8.13226C115.627 8.0564 115.431 7.97356 115.219 7.88531C115.009 7.79706 114.77 7.715 114.506 7.63837C114.241 7.5625 113.94 7.52379 113.601 7.52379C113.113 7.52379 112.739 7.61437 112.478 7.79474C112.217 7.97511 112.087 8.22671 112.087 8.5472C112.087 8.78021 112.171 8.97297 112.341 9.12547C112.51 9.27798 112.736 9.41268 113.018 9.5288C113.298 9.64492 113.618 9.75562 113.973 9.86012C114.329 9.96463 114.693 10.0808 115.065 10.2093C115.438 10.3378 115.802 10.4879 116.157 10.6606C116.513 10.8332 116.831 11.0461 117.113 11.2985C117.394 11.5516 117.62 11.8582 117.789 12.2197C117.959 12.5812 118.044 13.0147 118.044 13.5202C118.044 14.1388 117.928 14.7085 117.697 15.2303C117.465 15.752 117.12 16.2018 116.661 16.5788C116.201 16.9566 115.635 17.2492 114.961 17.4575C114.287 17.6665 113.511 17.7702 112.634 17.7702C112.195 17.7702 111.757 17.73 111.319 17.6494C110.88 17.5689 110.456 17.4606 110.047 17.3243C109.638 17.1881 109.259 17.0255 108.912 16.8366C108.565 16.6477 108.267 16.4449 108.019 16.2289L108.912 14.8564C109.02 14.6961 109.148 14.5692 109.296 14.477C109.446 14.3849 109.639 14.3385 109.88 14.3385C110.103 14.3385 110.303 14.3865 110.481 14.4832C110.659 14.5792 110.851 14.6837 111.058 14.796C111.264 14.9082 111.506 15.0127 111.784 15.1087C112.06 15.2047 112.411 15.2535 112.832 15.2535C113.129 15.2535 113.382 15.2233 113.589 15.1629C113.795 15.1025 113.961 15.0205 114.085 14.916C114.209 14.8115 114.3 14.6954 114.358 14.5668C114.415 14.4383 114.445 14.306 114.445 14.1697C114.445 13.9212 114.358 13.7161 114.184 13.5558C114.01 13.3956 113.783 13.257 113.501 13.1401C113.22 13.024 112.9 12.9156 112.54 12.815C112.18 12.7143 111.814 12.6006 111.441 12.472C111.069 12.3435 110.704 12.1887 110.343 12.0083C109.983 11.828 109.663 11.5988 109.382 11.3217C109.1 11.0445 108.873 10.7055 108.7 10.3045C108.526 9.90348 108.439 9.41732 108.439 8.84756C108.439 8.31805 108.544 7.81409 108.756 7.33645C108.966 6.85881 109.283 6.43923 109.705 6.07849C110.127 5.71697 110.656 5.43054 111.293 5.21765C111.93 5.00477 112.675 4.89871 113.527 4.89871C113.99 4.89871 114.438 4.93897 114.873 5.01948C115.307 5.09999 115.715 5.21224 116.095 5.357C116.476 5.50176 116.823 5.67207 117.138 5.8687C117.452 6.06533 117.729 6.28054 117.969 6.51278L117.1 7.82493L117.099 7.82571Z" fill="white"/>
<path id="Vector_6" d="M125.413 20.8187C125.297 21.0672 125.156 21.2499 124.991 21.3668C124.825 21.4829 124.561 21.5418 124.196 21.5418H121.318L123.799 16.4844L118.662 5.09302H122.062C122.359 5.09302 122.591 5.15727 122.757 5.28578C122.922 5.41428 123.037 5.56679 123.104 5.74329L125.214 11.1258C125.412 11.6236 125.573 12.1214 125.698 12.6191C125.781 12.3621 125.872 12.1098 125.971 11.8605C126.069 11.612 126.164 11.3588 126.256 11.1018L128.167 5.74329C128.233 5.55905 128.363 5.40422 128.557 5.27958C128.752 5.15495 128.96 5.09302 129.184 5.09302H132.286L125.412 20.8195L125.413 20.8187Z" fill="white"/>
<path id="Vector_7" d="M53.5409 21.2631V24.4904H48.454V38.808H44.2597V24.4904H39.1729V21.2631H53.5409Z" fill="white"/>
<path id="Vector_8" d="M53.2918 38.8072V26.3205H55.5748C55.7647 26.3205 55.9242 26.3368 56.0526 26.3685C56.1811 26.401 56.2887 26.4506 56.3749 26.5187C56.4618 26.5868 56.528 26.6774 56.5735 26.7896C56.619 26.9019 56.6581 27.0389 56.6916 27.1991L56.9022 28.3673C57.3736 27.6613 57.9033 27.1031 58.4904 26.6936C59.0775 26.2841 59.7188 26.0797 60.4136 26.0797C61.0007 26.0797 61.4721 26.216 61.8279 26.4893L61.3318 29.2343C61.2982 29.4031 61.2328 29.5215 61.1331 29.5897C61.0342 29.6578 60.9018 29.6918 60.7359 29.6918C60.5955 29.6918 60.4296 29.674 60.2397 29.6377C60.0491 29.6013 59.8098 29.5835 59.5202 29.5835C58.5111 29.5835 57.7166 30.1052 57.1375 31.1488V38.8072H53.291H53.2918Z" fill="white"/>
<path id="Vector_9" d="M72.1775 38.8072C71.8138 38.8072 71.5386 38.7592 71.3527 38.6625C71.1669 38.5665 71.0113 38.366 70.8877 38.0602L70.6149 37.3735C70.2926 37.6383 69.9823 37.8713 69.6839 38.0718C69.3864 38.2723 69.0777 38.4434 68.7594 38.5835C68.4411 38.7244 68.1021 38.8281 67.7424 38.8962C67.3826 38.9644 66.9838 38.9984 66.545 38.9984C65.9579 38.9984 65.4243 38.9241 64.9441 38.7747C64.4639 38.6253 64.057 38.4062 63.722 38.1167C63.387 37.8264 63.1285 37.4664 62.9466 37.0352C62.7648 36.604 62.6738 36.107 62.6738 35.5435C62.6738 35.1007 62.7895 34.6455 63.0216 34.1779C63.253 33.7111 63.6542 33.2861 64.2253 32.9037C64.7965 32.5213 65.5655 32.2008 66.5331 31.943C67.5007 31.6852 68.7211 31.5559 70.1937 31.5559V31.021C70.1937 30.284 70.0389 29.7506 69.7286 29.4232C69.4183 29.095 68.978 28.9308 68.4068 28.9308C67.9514 28.9308 67.5796 28.9788 67.2901 29.0756C67.0005 29.1716 66.7421 29.28 66.5147 29.4007C66.2874 29.5215 66.0656 29.6299 65.851 29.7259C65.6357 29.8219 65.3796 29.8706 65.0821 29.8706C64.8172 29.8706 64.5923 29.8087 64.4056 29.6841C64.2198 29.5594 64.073 29.4054 63.9653 29.2204L63.2705 28.0522C64.0483 27.3857 64.9106 26.8902 65.8574 26.5651C66.8043 26.24 67.8197 26.0774 68.9038 26.0774C69.6816 26.0774 70.3819 26.1997 71.0073 26.4443C71.6319 26.689 72.1616 27.0304 72.5955 27.4677C73.0295 27.9051 73.3629 28.4253 73.5942 29.0268C73.8256 29.6291 73.942 30.2871 73.942 31.0016V38.8041H72.1799L72.1775 38.8072ZM67.7599 36.5313C68.2561 36.5313 68.6908 36.4469 69.0625 36.2781C69.4351 36.1094 69.8108 35.8369 70.1913 35.4591V33.749C69.4223 33.749 68.7889 33.7978 68.2928 33.8946C67.7966 33.9913 67.4033 34.1129 67.1138 34.2592C66.8242 34.4047 66.624 34.5712 66.5123 34.757C66.4006 34.9435 66.3448 35.1456 66.3448 35.3639C66.3448 35.7935 66.4645 36.0947 66.7046 36.2688C66.9447 36.443 67.2957 36.5297 67.7591 36.5297L67.7599 36.5313Z" fill="white"/>
<path id="Vector_10" d="M76.6689 38.8073V26.3205H79.0517C79.2918 26.3205 79.492 26.3731 79.6531 26.4769C79.8142 26.5814 79.9283 26.7378 79.9945 26.9468L80.2179 27.669C80.466 27.4445 80.722 27.2355 80.9869 27.0428C81.2517 26.85 81.5349 26.6874 81.8364 26.5551C82.1379 26.4227 82.465 26.3182 82.8168 26.2423C83.1685 26.1665 83.5506 26.1277 83.9646 26.1277C84.6674 26.1277 85.2904 26.2462 85.832 26.4831C86.3737 26.72 86.8307 27.049 87.2033 27.4709C87.5758 27.892 87.8566 28.3944 88.0472 28.9758C88.2371 29.5579 88.3328 30.1904 88.3328 30.8724V38.808H84.4863V30.8724C84.4863 30.2624 84.3411 29.7871 84.0524 29.4457C83.7628 29.1043 83.3369 28.934 82.7745 28.934C82.3525 28.934 81.9552 29.0222 81.5835 29.1987C81.211 29.3752 80.8552 29.6121 80.5162 29.9094V38.808H76.6697L76.6689 38.8073Z" fill="white"/>
<path id="Vector_11" d="M98.9286 29.0539C98.8297 29.2065 98.7236 29.3148 98.6119 29.3791C98.5002 29.4433 98.3574 29.4751 98.1835 29.4751C98.0096 29.4751 97.8198 29.4371 97.6379 29.3605C97.456 29.2846 97.2598 29.2018 97.0484 29.1136C96.8378 29.0253 96.5993 28.9432 96.3353 28.8666C96.0705 28.7907 95.7689 28.752 95.4299 28.752C94.9417 28.752 94.5676 28.8426 94.3068 29.023C94.0459 29.2034 93.9159 29.4549 93.9159 29.7754C93.9159 30.0085 94.0004 30.2012 94.1704 30.3537C94.3395 30.5062 94.5652 30.6409 94.8468 30.757C95.1276 30.8732 95.4467 30.9839 95.8024 31.0884C96.1582 31.1929 96.522 31.309 96.8945 31.4375C97.267 31.566 97.6307 31.7162 97.9865 31.8888C98.3423 32.0614 98.6606 32.2743 98.9421 32.5267C99.2229 32.7798 99.4487 33.0864 99.6186 33.4479C99.7877 33.8094 99.8731 34.243 99.8731 34.7485C99.8731 35.367 99.7574 35.9368 99.5261 36.4585C99.2939 36.9803 98.9493 37.4301 98.4899 37.8071C98.0304 38.1848 97.464 38.4775 96.79 38.6865C96.1159 38.8955 95.3406 38.9992 94.4631 38.9992C94.0244 38.9992 93.5864 38.959 93.1477 38.8785C92.709 38.7979 92.2854 38.6903 91.8762 38.5533C91.467 38.4171 91.0881 38.2545 90.7411 38.0656C90.3941 37.8767 90.0957 37.6739 89.8477 37.4571L90.7411 36.0846C90.8488 35.9244 90.9772 35.7974 91.1256 35.7053C91.2747 35.6132 91.4686 35.5667 91.7087 35.5667C91.932 35.5667 92.1322 35.6147 92.3101 35.7115C92.488 35.8082 92.6803 35.912 92.8869 36.0242C93.0935 36.1365 93.3352 36.241 93.6128 36.337C93.8896 36.433 94.2398 36.4817 94.6609 36.4817C94.9585 36.4817 95.2113 36.4516 95.4179 36.3912C95.6245 36.3308 95.7905 36.2487 95.9141 36.1442C96.0385 36.0397 96.1295 35.9236 96.1869 35.7951C96.2444 35.6666 96.2739 35.5342 96.2739 35.398C96.2739 35.1495 96.1869 34.9443 96.013 34.7841C95.8391 34.6238 95.6118 34.4853 95.3302 34.3684C95.0486 34.2522 94.7287 34.1439 94.369 34.0432C94.0092 33.9434 93.6431 33.8288 93.2706 33.7003C92.898 33.5718 92.5327 33.417 92.1721 33.2366C91.8124 33.0562 91.4917 32.8271 91.2109 32.5499C90.9293 32.2728 90.702 31.9337 90.5289 31.5327C90.355 31.1317 90.268 30.6456 90.268 30.0758C90.268 29.5463 90.3733 29.0423 90.5847 28.5647C90.7953 28.0871 91.112 27.6675 91.534 27.3067C91.956 26.9452 92.4848 26.6588 93.1222 26.4459C93.7587 26.233 94.5038 26.127 95.3557 26.127C95.8192 26.127 96.2675 26.1672 96.7022 26.2469C97.1362 26.3275 97.5438 26.4397 97.9243 26.5845C98.3048 26.7292 98.6518 26.8995 98.9669 27.0962C99.2812 27.2928 99.558 27.508 99.7981 27.7402L98.9294 29.0532L98.9286 29.0539Z" fill="white"/>
<path id="Vector_12" d="M102.551 38.8073V28.8852L101.707 28.7164C101.417 28.6522 101.184 28.5523 101.006 28.4153C100.828 28.2791 100.739 28.0778 100.739 27.813V26.3437H102.551V25.6331C102.551 24.9186 102.669 24.2722 102.904 23.6946C103.14 23.1164 103.479 22.6233 103.921 22.2137C104.364 21.8042 104.903 21.4876 105.541 21.2623C106.177 21.0378 106.901 20.9248 107.712 20.9248C108.026 20.9248 108.317 20.9426 108.587 20.979C108.856 21.0154 109.135 21.0734 109.425 21.1539L109.35 22.9724C109.342 23.1009 109.307 23.2069 109.245 23.2913C109.183 23.3757 109.106 23.4438 109.015 23.4957C108.924 23.5483 108.823 23.5863 108.711 23.6103C108.6 23.6343 108.49 23.6467 108.383 23.6467C108.044 23.6467 107.741 23.6792 107.477 23.7426C107.212 23.8069 106.991 23.9215 106.813 24.0856C106.635 24.2505 106.5 24.4672 106.409 24.7359C106.318 25.0053 106.273 25.3436 106.273 25.7531V26.343H109.3V28.896H106.396V38.8065H102.55L102.551 38.8073Z" fill="white"/>
<path id="Vector_13" d="M116.473 26.1277C117.325 26.1277 118.104 26.2563 118.812 26.5133C119.519 26.7703 120.127 27.1434 120.636 27.6334C121.145 28.1235 121.542 28.7234 121.827 29.4333C122.113 30.1439 122.255 30.949 122.255 31.8478C122.255 32.1288 122.243 32.358 122.218 32.5345C122.193 32.711 122.148 32.8519 122.082 32.9556C122.015 33.0601 121.927 33.1321 121.815 33.1723C121.703 33.2126 121.561 33.2327 121.387 33.2327H113.967C114.091 34.2763 114.417 35.0326 114.947 35.5025C115.476 35.9724 116.159 36.2069 116.995 36.2069C117.441 36.2069 117.826 36.1551 118.149 36.0506C118.471 35.9461 118.759 35.8299 119.011 35.7014C119.263 35.5729 119.495 35.4568 119.706 35.3523C119.917 35.2478 120.138 35.1959 120.37 35.1959C120.675 35.1959 120.907 35.3043 121.064 35.5211L122.181 36.858C121.784 37.2992 121.356 37.6584 120.897 37.9356C120.438 38.2127 119.966 38.4295 119.483 38.5859C118.999 38.7422 118.515 38.8506 118.031 38.911C117.547 38.9714 117.086 39.0016 116.648 39.0016C115.746 39.0016 114.9 38.8591 114.11 38.5742C113.32 38.2894 112.63 37.8659 112.038 37.3039C111.446 36.7419 110.978 36.0436 110.635 35.2083C110.292 34.3738 110.12 33.4023 110.12 32.2945C110.12 31.46 110.267 30.6688 110.56 29.9225C110.854 29.1763 111.276 28.5221 111.826 27.9601C112.376 27.3981 113.042 26.953 113.824 26.6232C114.606 26.2942 115.489 26.1293 116.473 26.1293V26.1277ZM116.547 28.7048C115.811 28.7048 115.236 28.9077 114.823 29.3133C114.409 29.7189 114.136 30.3026 114.003 31.0652H118.805C118.805 30.7687 118.766 30.4791 118.687 30.1981C118.608 29.9171 118.481 29.6663 118.303 29.4457C118.125 29.225 117.891 29.0462 117.602 28.91C117.312 28.7737 116.96 28.7056 116.547 28.7056V28.7048Z" fill="white"/>
<path id="Vector_14" d="M124.463 38.8072V26.3205H126.746C126.936 26.3205 127.095 26.3368 127.224 26.3685C127.352 26.401 127.46 26.4506 127.546 26.5187C127.633 26.5868 127.699 26.6774 127.744 26.7896C127.79 26.9019 127.829 27.0389 127.862 27.1991L128.073 28.3673C128.545 27.6613 129.074 27.1031 129.661 26.6936C130.248 26.2841 130.89 26.0797 131.585 26.0797C132.172 26.0797 132.643 26.216 132.999 26.4893L132.503 29.2343C132.469 29.4031 132.404 29.5215 132.304 29.5897C132.205 29.6578 132.073 29.6918 131.907 29.6918C131.766 29.6918 131.6 29.674 131.411 29.6377C131.22 29.6013 130.981 29.5835 130.691 29.5835C129.682 29.5835 128.888 30.1052 128.308 31.1488V38.8072H124.462H124.463Z" fill="white"/>
<path id="Vector_15" d="M32.1586 28.535C31.6775 28.4 31.2318 28.2741 30.7861 28.1483C30.7821 28.13 30.779 28.1117 30.7751 28.0926C30.948 28.0201 31.1162 27.9362 31.2939 27.8775C33.4933 27.1459 35.6935 26.4181 37.8938 25.6896C37.9944 25.656 38.0974 25.6308 38.2499 25.5873C38.2208 25.807 38.2129 26.0039 38.1673 26.1931C37.9433 27.1222 37.7169 28.0514 37.4764 28.9767C37.353 29.4528 37.1918 29.9196 37.0613 30.3941C36.9686 30.7321 36.9104 31.0784 36.8176 31.4164C36.6588 31.9992 36.4851 32.5774 36.3035 33.2076C36.0441 32.8811 36.0268 32.4973 35.8319 32.1449C35.6377 32.2738 35.4491 32.3921 35.2683 32.521C34.4916 33.0756 33.7276 33.6477 32.9407 34.1878C31.2271 35.3634 29.4238 36.3879 27.461 37.1256C26.5365 37.4735 25.5924 37.7573 24.6161 37.9503C22.8475 38.3004 21.5174 38.334 20.1622 38.2592C17.9596 38.1372 15.8207 37.6962 13.7856 36.8548C9.1925 34.956 5.7314 31.8596 3.46593 27.5357C2.47625 25.6461 1.85447 23.6321 1.54947 21.532C1.34037 20.0902 1.36395 18.6445 1.53296 17.1982C1.7735 15.1331 2.29939 13.1443 3.18451 11.2486C4.35026 8.75253 6.03247 6.62796 8.14545 4.8238C8.713 4.33938 9.3112 3.88395 9.92906 3.46133C12.1128 1.96612 14.5315 0.988894 17.1335 0.415985C18.8675 0.0353177 20.6213 -0.116492 22.3892 -0.0249483C25.3252 0.127624 28.0702 0.930916 30.6123 2.37043C31.2184 2.71372 31.7608 3.14779 32.1515 3.70697C32.5437 4.2692 32.7756 4.91381 32.91 5.59047C33.182 6.95828 32.8385 8.21013 32.2097 9.42156C31.3921 10.9976 30.1682 12.2014 28.6338 13.1184C27.5631 13.7577 26.4854 14.3847 25.3991 14.9981C25.0335 15.204 24.8834 15.4794 24.8842 15.8792C24.8905 17.8214 24.8897 19.7637 24.8842 21.7051C24.8748 24.7223 24.8583 27.7386 24.8441 30.755C24.8433 30.9892 24.712 31.1295 24.4298 31.1585C23.9684 31.2066 23.5054 31.2401 23.0432 31.2783C22.4882 31.3241 21.934 31.3706 21.3791 31.4133C21.0175 31.4415 20.6559 31.4721 20.2935 31.485C19.9736 31.4965 19.935 31.4545 19.935 31.1463C19.9327 28.5938 19.9319 26.0412 19.9303 23.4887C19.9303 21.7753 19.9303 20.0619 19.9288 18.3493C19.9288 18.1502 19.9075 17.9511 19.8926 17.6879C19.6222 17.8298 19.3942 17.9481 19.1686 18.0686C18.557 18.3951 17.9353 18.7063 17.3371 19.055C16.7656 19.3876 16.2161 19.7583 15.6596 20.1153C15.4591 20.2443 15.2587 20.374 15.0708 20.5189C13.9923 21.3474 13.0529 22.2971 12.3714 23.4681C12.3258 23.5459 12.2755 23.6245 12.2126 23.6886C12.1686 23.7336 12.0939 23.7832 12.042 23.7755C12.0019 23.7694 11.9509 23.6787 11.9469 23.623C11.9226 23.2774 11.9005 22.9311 11.895 22.5847C11.8801 21.6212 11.8447 20.6577 11.8715 19.695C11.9076 18.3806 12.4618 17.2661 13.409 16.3407C14.6943 15.085 16.1304 14.0056 17.69 13.0955C19.0531 12.2998 20.4609 11.5751 21.8531 10.826C24.1256 9.60312 26.4013 8.38636 28.6754 7.16578C28.7619 7.11924 28.8437 7.06432 28.9631 6.99185C28.8641 6.93082 28.7949 6.87665 28.7171 6.8408C27.1072 6.10998 25.4376 5.55767 23.6838 5.25557C22.0464 4.97408 20.4067 4.95196 18.7583 5.17319C17.0816 5.39823 15.4803 5.84527 13.9876 6.62796C11.8235 7.76234 10.1767 9.41088 8.94174 11.4599C7.79643 13.361 7.06302 15.4001 6.78868 17.5887C6.56622 19.3616 6.59766 21.1307 6.96397 22.8845C7.61249 25.9901 9.2153 28.5183 11.8817 30.369C13.758 31.6712 15.8459 32.5317 18.1051 32.9833C20.6795 33.4982 23.2389 33.4555 25.7693 32.717C27.5867 32.1869 29.1707 31.26 30.5667 30.0226C31.0518 29.5931 31.5289 29.1545 32.0076 28.7174C32.0571 28.6724 32.0925 28.6136 32.1578 28.5327" fill="#F3F3F3"/>
</g>
<defs>
<clipPath id="clip0_242_869">
<rect width="133" height="39" fill="white"/>
</clipPath>
</defs>
</svg>
