<svg width="195" height="35" viewBox="0 0 195 35" fill="none" xmlns="http://www.w3.org/2000/svg">
<g id="Logo2" clip-path="url(#clip0_242_850)">
<g id="_&#208;&#161;&#208;&#187;&#208;&#190;&#208;&#185;_1">
<g id="Layer">
<g id="Layer_2">
<path id="Layer_3" d="M44.4487 17.6738C43.8115 16.9291 43.0627 16.3789 42.2021 16.0231C41.3332 15.6755 40.2326 15.3322 38.9003 14.9929C37.5929 14.662 36.6289 14.3351 36.0082 14.0124C35.3793 13.6897 35.0649 13.2181 35.0649 12.5975C35.0649 12.0432 35.2924 11.6088 35.7476 11.2943C36.211 10.9882 36.8606 10.8351 37.6963 10.8351C38.6066 10.8351 39.3348 11.0502 39.8809 11.4805C40.4271 11.9149 40.7374 12.4982 40.7994 13.2305H45.2679C45.1314 11.3564 44.4115 9.87944 43.0958 8.78725C41.7883 7.68677 40.034 7.13654 37.8329 7.13654C36.3434 7.13654 35.0525 7.38476 33.9478 7.86881C32.8555 8.35699 32.0114 9.02306 31.4156 9.86703C30.8322 10.711 30.5343 11.6419 30.5343 12.6596C30.5343 13.9007 30.8571 14.8936 31.4901 15.6259C32.119 16.3623 32.872 16.9084 33.7492 17.2642C34.6263 17.62 35.7558 17.9634 37.1378 18.2943C38.4659 18.6419 39.4341 18.977 40.0547 19.2748C40.6588 19.5727 40.9608 20.0237 40.9608 20.6277C40.9608 21.1862 40.7126 21.633 40.2161 21.9929C39.7196 22.3404 39.0245 22.5266 38.1308 22.5266C37.2495 22.5266 36.4551 22.2908 35.8469 21.8192C35.2428 21.3558 34.8952 20.7683 34.8042 20.0567H30.1123C30.1702 21.1903 30.5509 22.2246 31.2543 23.1596C31.9494 24.0904 32.9051 24.8351 34.0967 25.3688C35.3007 25.9149 36.6537 26.188 38.168 26.188C39.6699 26.188 40.9112 25.9521 42.0159 25.4681C43.1082 24.9965 43.9522 24.3387 44.548 23.4947C45.1355 22.6507 45.4293 21.695 45.4293 20.6277C45.4045 19.3989 45.0817 18.4185 44.4363 17.6738H44.4487Z" fill="white"/>
<path id="Layer_4" fill-rule="evenodd" clip-rule="evenodd" d="M63.4151 10.8351C64.1226 12.0266 64.4826 13.4415 64.4826 15.055V25.8901H59.7535V23.2589C59.2404 24.1028 58.4088 24.8062 57.2585 25.3688C56.1 25.9397 54.8547 26.2252 53.5224 26.2252C52.368 26.2252 51.3254 25.9894 50.3944 25.5177C49.4594 25.0544 48.727 24.4131 48.1974 23.594C47.6678 22.7666 47.3989 21.8192 47.3906 20.7518C47.3906 19.0473 48.0278 17.6531 49.3021 16.5692C50.5848 15.477 52.5004 14.9309 55.0491 14.9309H59.7535C59.7121 13.7559 59.3728 12.8168 58.7356 12.1135C58.1067 11.4185 57.2337 11.0709 56.1166 11.0709C55.1402 11.0627 54.3333 11.3233 53.6962 11.8528C53.0507 12.3741 52.6287 13.094 52.4549 14.0248H47.7878C48.0113 12.6968 48.4953 11.5053 49.2401 10.4504C49.9848 9.39127 50.9613 8.56798 52.1694 7.98051C53.3859 7.39718 54.7016 7.0993 56.2531 7.0993C57.8088 7.0993 59.2156 7.422 60.4734 8.06739C61.7229 8.71278 62.7035 9.63536 63.4151 10.8351ZM59.7535 17.9592H55.3222C54.2547 17.9592 53.4603 18.1702 52.939 18.5922C52.4177 19.0142 52.157 19.5975 52.157 20.2677C52.157 20.9255 52.3929 21.4592 52.8769 21.8564C53.3486 22.2618 54.0189 22.4646 54.8878 22.4646C55.6698 22.4646 56.4269 22.2908 57.1717 21.9557C57.9164 21.6206 58.537 21.1241 59.0211 20.4539C59.5093 19.792 59.7535 19.0059 59.7535 18.0958V17.9592Z" fill="white"/>
<path id="Layer_5" d="M67.5479 1.24115V25.8901H72.2149V1.24115H67.5479Z" fill="white"/>
<path id="Layer_6" fill-rule="evenodd" clip-rule="evenodd" d="M93.0311 18.0585H79.5387C79.6463 19.3907 80.1097 20.4332 80.9289 21.1862C81.7481 21.9474 82.7618 22.3239 83.97 22.3156C85.6953 22.3156 86.9241 21.5709 87.6565 20.094H92.6959C92.1622 21.8688 91.1444 23.3333 89.6301 24.4628C88.1157 25.6129 86.2621 26.188 84.0693 26.188C82.2943 26.188 80.6931 25.7908 79.2905 25.0089C77.8754 24.2146 76.7749 23.0975 75.9888 21.6578C75.1944 20.2181 74.8096 18.5674 74.8096 16.656C74.8096 14.7571 75.1944 13.0692 75.9639 11.6294C76.7459 10.1897 77.8382 9.07271 79.2408 8.3032C80.631 7.52129 82.3191 7.13654 84.0693 7.13654C85.8194 7.13654 87.3958 7.50888 88.7736 8.26597C90.1638 9.02306 91.2437 10.0904 92.0133 11.4805C92.7746 12.8706 93.1552 14.4634 93.1552 16.2589C93.1552 16.9291 93.1138 17.529 93.0311 18.0585ZM88.3268 14.9309C88.3019 13.7311 87.8675 12.7713 87.0234 12.0514C86.1918 11.3316 85.1492 10.9592 83.9327 10.9592C82.7784 10.9592 81.7978 11.3067 81.0158 12.0142C80.2338 12.7092 79.7497 13.6773 79.5635 14.9309H88.3268Z" fill="white"/>
<path id="Layer_7" d="M109.229 17.6738C108.6 16.9291 107.851 16.3789 106.982 16.0231C106.113 15.6755 105.017 15.3322 103.693 14.9929C102.377 14.662 101.409 14.3351 100.789 14.0124C100.168 13.6897 99.8576 13.2181 99.8576 12.5975C99.8576 12.0432 100.085 11.6088 100.54 11.2943C100.995 10.9882 101.645 10.8351 102.489 10.8351C103.399 10.8351 104.127 11.0502 104.674 11.4805C105.211 11.9108 105.518 12.4941 105.592 13.2305H110.048C109.912 11.3564 109.192 9.87944 107.876 8.78725C106.573 7.68264 104.823 7.13654 102.613 7.13654C101.132 7.13654 99.841 7.38063 98.7404 7.86881C97.6481 8.35285 96.7917 9.02306 96.2083 9.86703C95.6249 10.711 95.327 11.6419 95.327 12.6596C95.327 13.909 95.6415 14.8978 96.2704 15.6259C96.9075 16.3623 97.6647 16.9084 98.5418 17.2642C99.4231 17.6117 100.54 17.9592 101.918 18.2943C103.259 18.6419 104.227 18.977 104.835 19.2748C105.447 19.5727 105.753 20.0237 105.753 20.6277C105.753 21.182 105.501 21.6371 104.996 21.9929C104.5 22.3404 103.805 22.5266 102.923 22.5266C102.03 22.5266 101.248 22.2908 100.64 21.8192C100.031 21.3599 99.6838 20.7642 99.5845 20.0567H94.8926C94.9588 21.1903 95.3436 22.2246 96.0469 23.1596C96.742 24.0904 97.6978 24.8351 98.8894 25.3688C100.089 25.9149 101.446 26.188 102.961 26.188C104.463 26.188 105.704 25.9521 106.796 25.4681C107.901 24.9965 108.745 24.3387 109.328 23.4947C109.916 22.6507 110.21 21.695 110.21 20.6277C110.193 19.4031 109.866 18.4185 109.229 17.6738Z" fill="white"/>
<path id="Layer_8" d="M117.782 7.43441V6.66491C117.782 5.62235 118.005 4.90249 118.452 4.50533C118.899 4.10817 119.685 3.91786 120.811 3.93441V1.17975e-05C118.216 -0.0620449 116.268 0.434409 114.989 1.50178C113.698 2.56916 113.053 4.23642 113.053 6.50356V7.43441L117.782 11.2695H121.009V7.43441H117.782ZM113.053 25.8901H117.782V11.2695H113.053V25.8901Z" fill="white"/>
<path id="Layer_9" fill-rule="evenodd" clip-rule="evenodd" d="M141.204 16.656C141.204 18.555 140.77 20.2181 139.926 21.6578C139.069 23.0975 137.902 24.2146 136.45 25.0089C134.998 25.7908 133.347 26.188 131.572 26.188C129.793 26.188 128.196 25.7949 126.781 25.0089C125.357 24.2228 124.24 23.1058 123.429 21.6578C122.618 20.2098 122.213 18.5426 122.213 16.656C122.213 14.7695 122.635 13.1064 123.467 11.6667C124.298 10.227 125.44 9.10994 126.88 8.31561C128.32 7.5337 129.933 7.13654 131.708 7.13654C133.483 7.13654 135.097 7.5337 136.537 8.31561C137.977 9.10994 139.119 10.227 139.95 11.6667C140.782 13.1064 141.204 14.7695 141.204 16.656ZM136.4 16.656C136.4 14.906 135.941 13.5532 135.023 12.6099C134.104 11.6667 132.975 11.195 131.646 11.195C130.306 11.195 129.189 11.6667 128.295 12.6099C127.393 13.5532 126.942 14.9019 126.942 16.656C126.942 18.4185 127.381 19.7672 128.258 20.7021C129.139 21.6578 130.244 22.1294 131.572 22.1294C132.416 22.1294 133.21 21.9185 133.955 21.5089C134.7 21.0993 135.296 20.4787 135.742 19.6596C136.181 18.8404 136.4 17.8393 136.4 16.656Z" fill="white"/>
<path id="Layer_10" d="M150.6 8.00534C149.632 8.55971 148.85 9.32508 148.254 10.3014V7.43442H143.587V25.8901H148.254V16.6933C148.254 14.9805 148.626 13.7808 149.371 13.094C150.116 12.4072 151.221 12.0638 152.685 12.0638H153.914V7.43442C152.673 7.43442 151.568 7.44683 150.6 8.00534Z" fill="white"/>
<path id="Layer_11" fill-rule="evenodd" clip-rule="evenodd" d="M174.395 7.43441V26.0142C174.395 27.727 174.052 29.2536 173.365 30.594C172.678 31.9427 171.648 33.0101 170.274 33.7961C168.892 34.5822 167.225 34.9752 165.272 34.9752C162.649 34.9752 160.501 34.367 158.83 33.1507C157.15 31.9261 156.198 30.2589 155.975 28.1489H160.605C160.853 28.9929 161.387 29.6755 162.194 30.172C163.005 30.6685 163.985 30.9167 165.135 30.9167C166.493 30.9167 167.593 30.5112 168.437 29.7004C169.281 28.8936 169.703 27.6649 169.703 26.0142V23.1596C169.107 24.0284 168.276 24.7482 167.221 25.3192C166.162 25.8984 164.958 26.188 163.609 26.188C162.057 26.188 160.63 25.7908 159.339 24.9841C158.06 24.1897 157.043 23.0603 156.298 21.6082C155.553 20.156 155.181 18.4557 155.181 16.594C155.181 14.724 155.553 13.0692 156.298 11.6294C157.043 10.1897 158.052 9.08098 159.326 8.3032C160.601 7.52542 162.028 7.13654 163.609 7.13654C164.982 7.13654 166.195 7.40959 167.246 7.95568C168.288 8.50178 169.107 9.19682 169.703 10.0656V7.43441H174.395ZM169.703 16.656C169.703 15.5266 169.48 14.5585 169.033 13.7518C168.599 12.9326 167.99 12.3121 167.233 11.8777C166.488 11.4433 165.669 11.2323 164.8 11.2323C163.94 11.2323 163.141 11.4433 162.405 11.8653C161.672 12.2872 161.089 12.9078 160.63 13.7145C160.17 14.5213 159.947 15.477 159.947 16.594C159.939 17.7027 160.166 18.675 160.63 19.5106C161.089 20.3422 161.685 20.9752 162.43 21.422C163.162 21.8688 163.944 22.0922 164.8 22.0922C165.669 22.0922 166.488 21.8688 167.246 21.4344C167.99 21.0124 168.599 20.3919 169.033 19.5727C169.48 18.766 169.703 17.7979 169.703 16.656Z" fill="white"/>
<path id="Layer_12" fill-rule="evenodd" clip-rule="evenodd" d="M194.95 16.2589C194.95 16.9291 194.904 17.529 194.813 18.0585H181.321C181.437 19.3907 181.904 20.4332 182.724 21.1862C183.543 21.9474 184.552 22.3239 185.752 22.3156C187.49 22.3156 188.719 21.5709 189.451 20.094H194.478C193.944 21.8688 192.927 23.3333 191.412 24.4628C189.91 25.617 188.049 26.188 185.852 26.188C184.081 26.188 182.488 25.7949 181.073 25.0089C179.666 24.2146 178.565 23.0975 177.771 21.6578C176.989 20.2181 176.592 18.5674 176.592 16.656C176.592 14.7571 176.989 13.0692 177.759 11.6294C178.541 10.1897 179.633 9.07271 181.023 8.3032C182.426 7.52129 184.101 7.13654 185.852 7.13654C187.614 7.13654 189.186 7.51301 190.568 8.26597C191.958 9.01892 193.038 10.0904 193.808 11.4805C194.569 12.8706 194.95 14.4634 194.95 16.2589ZM190.121 14.9309C190.097 13.727 189.675 12.7713 188.818 12.0514C187.974 11.3316 186.944 10.9592 185.727 10.9592C184.573 10.9592 183.592 11.3192 182.81 12.0142C182.028 12.7216 181.532 13.6897 181.358 14.9309H190.121Z" fill="white"/>
</g>
<path id="Layer_13" fill-rule="evenodd" clip-rule="evenodd" d="M24.8125 12.0762L25.8304 13.1064L22.5038 16.4326L21.4984 15.4273C20.3937 14.3103 18.5939 14.3103 17.4768 15.4273L11.6553 21.2482C8.72597 24.1897 3.95958 24.1897 1.01782 21.2482L0 20.2305L3.32654 16.9043L4.33195 17.8972C5.43666 19.0142 7.23647 19.0142 8.3536 17.8972L14.175 12.0762C17.1044 9.14716 21.8708 9.14716 24.8125 12.0762ZM22.5038 16.4326L25.8304 19.7589L17.9981 27.5904C15.0563 30.5195 10.3024 30.5195 7.3606 27.5904L6.34277 26.5603L9.66932 23.234L10.6747 24.2394C11.7794 25.3564 13.5792 25.3564 14.684 24.2394L22.5038 16.4326ZM18.4698 5.73404L19.4876 6.76418L16.161 10.0904L15.1556 9.0851C14.0509 7.96808 12.2511 7.96808 11.1464 9.0851L3.32654 16.8918L0 13.5656L7.83227 5.73404C10.774 2.80496 15.528 2.80496 18.4698 5.73404Z" fill="#CACACA"/>
</g>
</g>
</g>
<defs>
<clipPath id="clip0_242_850">
<rect width="195" height="35" fill="white"/>
</clipPath>
</defs>
</svg>
