<svg width="159" height="41" viewBox="0 0 159 41" fill="none" xmlns="http://www.w3.org/2000/svg">
<g id="Logo1" clip-path="url(#clip0_242_865)">
<g id="Group">
<path id="Vector" d="M49.7158 30.7762V27.3146L59.464 13.749H53.7514V17.4754H50.2632V10.2891H66.1415V13.3676L56.0999 27.3146H62.8742V23.3816H66.3488V30.7762H49.7158ZM69.6874 12.4311C69.6876 11.7702 69.9507 11.1364 70.4191 10.6685C70.8874 10.2005 71.5228 9.93645 72.1861 9.9342C72.5165 9.92797 72.8445 9.99002 73.1496 10.1164C73.4546 10.2429 73.7301 10.4309 73.9585 10.6687C74.1925 10.8985 74.3773 11.1731 74.5018 11.476C74.6264 11.7789 74.688 12.1038 74.6831 12.4311C74.6755 13.0862 74.4088 13.712 73.9411 14.1725C73.4734 14.6331 72.8422 14.8914 72.1846 14.8914C71.5269 14.8914 70.8958 14.6331 70.428 14.1725C69.9603 13.712 69.6937 13.0862 69.686 12.4311H69.6874ZM67.6764 19.8025V16.5178H74.418V27.4915H76.5472V30.7762H67.6767V27.4915H69.85V19.8025H67.6764ZM94.304 16.5178V19.8025H91.9385V30.3429C91.9385 35.0505 89.4447 37.4048 84.4573 37.406C81.5987 37.406 79.4698 36.8905 78.0705 35.8596L80.288 32.8401C81.3233 33.5113 82.5273 33.8787 83.7623 33.9002C84.6806 33.9304 85.583 33.6557 86.3275 33.1192C87.0221 32.5985 87.3697 31.5872 87.3701 30.0851V28.9937C85.8813 30.3194 84.4324 30.9823 83.0233 30.9823C81.3673 30.9823 79.9552 30.2924 78.7873 28.9126C77.6193 27.5328 77.0353 25.7727 77.0353 23.6322C77.0353 21.4816 77.6366 19.7214 78.8391 18.3515C79.373 17.7032 80.0458 17.1821 80.8082 16.8266C81.5705 16.4711 82.4031 16.2902 83.2449 16.2971C84.0386 16.2841 84.8244 16.4553 85.5402 16.7971C86.256 17.1389 86.8822 17.6421 87.3691 18.2666V16.5178H94.304ZM87.3848 23.691C87.4381 22.7231 87.1677 21.7649 86.6158 20.9666C86.3737 20.6424 86.056 20.3819 85.6902 20.2074C85.3244 20.0328 84.9215 19.9496 84.5162 19.9648C84.1104 19.945 83.7062 20.0293 83.3424 20.2099C82.9787 20.3904 82.6676 20.661 82.4391 20.9958C81.9327 21.7852 81.6828 22.7109 81.7233 23.6468C81.6818 24.5851 81.9435 25.5119 82.4698 26.2911C82.698 26.6186 83.0049 26.8839 83.3626 27.0627C83.7203 27.2415 84.1173 27.3281 84.5172 27.3146C84.9058 27.3173 85.2901 27.2333 85.6418 27.0687C85.9936 26.9042 86.3039 26.6633 86.5501 26.3637C87.107 25.7299 87.3856 24.8387 87.3858 23.6903L87.3848 23.691ZM95.2802 19.8025V16.5178H102.037V17.8422C103.416 16.8117 104.816 16.2962 106.235 16.2958C109.124 16.2958 110.568 18.1319 110.567 21.8043V27.4915H112.726V30.7762H105.999V22.1446C105.999 21.369 105.893 20.8387 105.681 20.5537C105.555 20.404 105.395 20.2869 105.213 20.2126C105.032 20.1382 104.835 20.1088 104.64 20.1268C103.697 20.1589 102.787 20.4828 102.037 21.0535V27.4915H104.24V30.7762H95.2805V27.4915H97.4687V19.8025H95.2802ZM113.74 30.7762V23.7945H117.23C117.269 25.0707 117.604 26.0108 118.235 26.615C118.516 26.9011 118.852 27.1285 119.223 27.284C119.593 27.4394 119.991 27.5199 120.393 27.5207C120.69 27.5268 120.986 27.4718 121.26 27.3591C121.535 27.2464 121.783 27.0784 121.99 26.8656C122.197 26.6663 122.362 26.4271 122.474 26.1625C122.586 25.8979 122.642 25.6135 122.641 25.3264C122.648 25.0333 122.595 24.7418 122.486 24.4696C122.377 24.1974 122.213 23.9502 122.005 23.7429C121.31 23.1401 120.527 22.6476 119.681 22.2828C117.302 21.1423 115.687 20.1342 114.838 19.2585C113.988 18.3829 113.563 17.2025 113.563 15.7175C113.563 13.927 114.125 12.5401 115.248 11.5567C116.293 10.6032 117.66 10.0763 119.077 10.0809C119.821 10.0503 120.561 10.2094 121.226 10.5433C121.891 10.8772 122.459 11.3746 122.877 11.9886V10.2891H126.352V16.5178H122.878C122.826 15.6787 122.472 14.8864 121.88 14.2865C121.363 13.7776 120.665 13.4941 119.938 13.4984C119.417 13.4822 118.906 13.6433 118.489 13.9551C118.301 14.0918 118.149 14.2717 118.046 14.4795C117.943 14.6872 117.892 14.9167 117.897 15.1483C117.906 15.5946 118.08 16.0219 118.385 16.3487C118.711 16.7266 119.663 17.2624 121.242 17.9563C122.456 18.4687 123.626 19.0807 124.739 19.7859C125.546 20.3256 126.208 21.0545 126.666 21.9086C127.153 22.8386 127.396 23.8759 127.374 24.9246C127.374 26.9494 126.783 28.4727 125.6 29.4946C124.441 30.5083 122.943 31.0548 121.401 31.0274C119.598 31.0274 118.208 30.3623 117.232 29.0321V30.7775L113.74 30.7762ZM139.474 26.4751L143.022 27.6093C141.534 29.9365 139.208 31.1001 136.044 31.1001C133.522 31.1001 131.553 30.4373 130.138 29.1116C128.722 27.7859 128.015 26.0427 128.016 23.8822C127.988 22.8642 128.168 21.8512 128.544 20.9043C128.92 19.9574 129.485 19.0964 130.204 18.3733C131.664 16.9002 133.523 16.1637 135.779 16.1637C137.289 16.126 138.772 16.5586 140.023 17.4011C141.151 18.1456 142.019 19.2212 142.506 20.479C142.985 21.7956 143.22 23.1876 143.201 24.5878H132.542C132.61 25.8843 133.021 26.8025 133.776 27.3424C134.464 27.8604 135.301 28.1444 136.164 28.1526C137.258 28.1526 138.362 27.5929 139.476 26.4734L139.474 26.4751ZM138.602 22.0563C138.513 21.2972 138.185 20.5857 137.665 20.0236C137.392 19.7401 137.061 19.5184 136.695 19.3736C136.328 19.2287 135.935 19.1641 135.541 19.1842C133.866 19.1842 132.89 20.1415 132.614 22.0563H138.602ZM158.569 16.5178V22.3069H155.317C154.578 20.7159 153.42 19.9205 151.843 19.9207C151.393 19.9009 150.945 19.9797 150.53 20.1515C150.115 20.3233 149.743 20.584 149.44 20.915C148.816 21.6568 148.496 22.6064 148.546 23.5731C148.546 24.9188 148.861 25.913 149.492 26.5559C149.79 26.8685 150.151 27.1157 150.551 27.2818C150.95 27.4479 151.38 27.5293 151.813 27.5207C152.55 27.5187 153.27 27.3011 153.883 26.8948C154.534 26.478 155.072 25.9092 155.451 25.2377L159 26.7923C157.679 29.6639 155.363 31.0999 152.051 31.1001C149.558 31.1001 147.57 30.4225 146.087 29.0674C144.604 27.7123 143.862 25.9006 143.862 23.6322C143.862 21.3639 144.589 19.5742 146.043 18.2632C147.42 16.9825 149.238 16.2786 151.122 16.2971C152.677 16.2995 154.193 16.789 155.453 17.6965V16.5178H158.569Z" fill="white"/>
<path id="Vector_2" d="M15.2075 23.6814L36.6446 11.3509C36.7382 11.297 36.8159 11.2196 36.8699 11.1263C36.9239 11.0331 36.9524 10.9273 36.9524 10.8196C36.9524 10.712 36.9239 10.6062 36.8699 10.5129C36.8159 10.4197 36.7382 10.3422 36.6446 10.2884L19.0263 0.154491C18.8502 0.0528918 18.6503 -0.000610352 18.4469 -0.000610352C18.2434 -0.000610352 18.0435 0.0528918 17.8674 0.154491L0.102174 10.4014V13.0375L18.1813 2.61266C18.2631 2.56553 18.356 2.54072 18.4504 2.54072C18.5449 2.54072 18.6377 2.56553 18.7195 2.61266L32.9877 10.8198L29.6283 12.752L19.0256 6.65561C18.8495 6.55408 18.6496 6.50061 18.4462 6.50061C18.2427 6.50061 18.0428 6.55408 17.8667 6.65561L0.102174 16.9056V19.5421L18.1796 9.11174C18.2614 9.06461 18.3542 9.0398 18.4487 9.0398C18.5432 9.0398 18.636 9.06461 18.7178 9.11174L27.3378 14.0695L23.9785 16.0017L19.0263 13.1533C18.8502 13.0518 18.6503 12.9983 18.4469 12.9983C18.2434 12.9983 18.0435 13.0518 17.8674 13.1533L0.102174 23.4118V26.0493L18.18 15.6115C18.2618 15.5644 18.3547 15.5396 18.4492 15.5396C18.5438 15.5396 18.6367 15.5644 18.7185 15.6115L21.6886 17.3182L0.306682 29.6504C0.21327 29.7043 0.135718 29.7817 0.0818049 29.8749C0.0278916 29.968 -0.000488281 30.0737 -0.000488281 30.1812C-0.000488281 30.2887 0.0278916 30.3944 0.0818049 30.4875C0.135718 30.5807 0.21327 30.6581 0.306682 30.712L17.8688 40.8448C18.0455 40.9468 18.2462 41.0004 18.4504 41C18.6546 40.9997 18.8551 40.9454 19.0314 40.8428L36.994 30.39V27.7475L18.7144 38.3856C18.6324 38.4331 18.5393 38.458 18.4445 38.458C18.3497 38.458 18.2565 38.4331 18.1745 38.3856L3.90772 30.1809L7.26744 28.2487L17.8695 34.3471C18.0462 34.4488 18.2469 34.5021 18.4511 34.5015C18.6552 34.5009 18.8556 34.4465 19.0318 34.3437L36.9944 23.8692V21.2257L18.7124 31.8859C18.6305 31.9337 18.5374 31.959 18.4425 31.9593C18.3476 31.9596 18.2543 31.9348 18.1721 31.8876L9.55759 26.9312L12.917 24.999L17.8698 27.8473C18.0466 27.9494 18.2474 28.0029 18.4518 28.0025C18.6561 28.0021 18.8567 27.9477 19.0331 27.8449L36.9957 17.3413V14.6947L18.7124 25.3847C18.6304 25.4326 18.5372 25.458 18.4422 25.4583C18.3472 25.4587 18.2538 25.434 18.1715 25.3868L15.2075 23.6814Z" fill="#D9D9D9"/>
</g>
</g>
<defs>
<clipPath id="clip0_242_865">
<rect width="159" height="41" fill="white"/>
</clipPath>
</defs>
</svg>
