<svg width="126" height="50" viewBox="0 0 126 50" fill="none" xmlns="http://www.w3.org/2000/svg">
<g id="Logo3">
<g id="Clip path group">
<mask id="mask0_242_832" style="mask-type:luminance" maskUnits="userSpaceOnUse" x="8" y="8" width="34" height="34">
<g id="clip0_5319_3485">
<path id="Vector" d="M41.1321 8.33334H8.85107V41.6667H41.1321V8.33334Z" fill="white"/>
</g>
</mask>
<g mask="url(#mask0_242_832)">
<g id="Group">
<path id="Vector_2" fill-rule="evenodd" clip-rule="evenodd" d="M40.61 26.3306C40.7005 26.3295 40.7746 26.4046 40.7746 26.4971L40.7748 32.0964C40.7748 32.1888 40.7007 32.2637 40.6102 32.2654C35.9416 32.3543 32.1731 36.2147 32.0867 40.9972C32.085 41.0897 32.0117 41.1652 31.9212 41.1652H26.456C26.3656 41.1652 26.292 41.0895 26.293 40.9971C26.3804 32.9372 32.742 26.4204 40.61 26.3306Z" fill="#C3C3C3"/>
<path id="Vector_3" fill-rule="evenodd" clip-rule="evenodd" d="M26.3523 8.60597C26.2617 8.60494 26.1876 8.67999 26.1876 8.77246L26.1875 14.3381C26.1875 14.4306 26.2615 14.5054 26.3521 14.5071C31.0069 14.5956 34.7642 18.4335 34.851 23.1883C34.8527 23.2808 34.9259 23.3564 35.0165 23.3564H40.4652C40.5557 23.3564 40.6292 23.2806 40.6281 23.1882C40.5406 15.1747 34.1975 8.69552 26.3523 8.60597Z" fill="#C3C3C3"/>
<path id="Vector_4" fill-rule="evenodd" clip-rule="evenodd" d="M23.42 26.4893C23.5106 26.4882 23.5847 26.5632 23.5847 26.6558V32.2552C23.5847 32.3476 23.5108 32.4225 23.4202 32.4242C18.7515 32.513 14.9832 36.3734 14.8966 41.1559C14.895 41.2483 14.8218 41.324 14.7312 41.324H9.26609C9.17553 41.324 9.10203 41.2482 9.10304 41.1558C9.19044 33.0959 15.5519 26.5791 23.42 26.4893Z" fill="#E4E4E4"/>
<path id="Vector_5" fill-rule="evenodd" clip-rule="evenodd" d="M9.17842 8.60597C9.08788 8.60494 9.01371 8.67999 9.01371 8.77246L9.01367 14.3381C9.01367 14.4306 9.08769 14.5054 9.17823 14.5071C13.8331 14.5956 17.5904 18.4335 17.6771 23.1883C17.6787 23.2808 17.752 23.3564 17.8426 23.3564H23.2913C23.3818 23.3564 23.4553 23.2806 23.4544 23.1882C23.3667 15.1747 17.0236 8.69552 9.17842 8.60597Z" fill="#E4E4E4"/>
</g>
</g>
</g>
<path id="Vector_6" d="M64.6185 33.8541H55.0967V31.9541L61.6945 23.6041H55.0967V21.6291H64.6185V23.5541L57.9707 31.8791H64.6185V33.8541Z" fill="white"/>
<path id="Vector_7" d="M76.3218 21.6291H78.3961V33.8541H76.2468L76.0469 31.6291C75.6303 32.4124 75.0389 33.0374 74.2724 33.5041C73.5227 33.9541 72.6396 34.1791 71.6233 34.1791C70.4237 34.1791 69.3991 33.8957 68.5493 33.3291C67.6996 32.7624 67.0498 31.9874 66.6 31.0041C66.1668 30.0207 65.9502 28.9041 65.9502 27.6541C65.9502 26.4041 66.1834 25.3041 66.65 24.3541C67.1331 23.3874 67.7996 22.6374 68.6493 22.1041C69.5157 21.5541 70.532 21.2791 71.6983 21.2791C72.6313 21.2791 73.506 21.4957 74.3224 21.9291C75.1388 22.3457 75.747 22.9957 76.1468 23.8791L76.3218 21.6291ZM75.9969 27.7541C75.9969 26.9041 75.8386 26.1541 75.522 25.5041C75.2221 24.8541 74.7889 24.3457 74.2225 23.9791C73.656 23.6124 72.9645 23.4291 72.1481 23.4291C71.3651 23.4291 70.682 23.6124 70.0988 23.9791C69.5157 24.3457 69.0742 24.8541 68.7743 25.5041C68.4744 26.1541 68.3244 26.9041 68.3244 27.7541C68.3244 28.5874 68.4744 29.3291 68.7743 29.9791C69.0742 30.6291 69.5074 31.1374 70.0738 31.5041C70.6403 31.8707 71.3234 32.0541 72.1232 32.0541C72.9229 32.0541 73.606 31.8707 74.1725 31.5041C74.7556 31.1374 75.2055 30.6291 75.522 29.9791C75.8386 29.3291 75.9969 28.5874 75.9969 27.7541Z" fill="white"/>
<path id="Vector_8" d="M81.5342 39.3291V21.6291H83.6585L83.8334 23.8291C84.2333 22.9791 84.8248 22.3457 85.6078 21.9291C86.4076 21.4957 87.2906 21.2791 88.257 21.2791C89.4232 21.2791 90.4312 21.5541 91.281 22.1041C92.1307 22.6374 92.7805 23.3874 93.2303 24.3541C93.6968 25.3041 93.9301 26.4041 93.9301 27.6541C93.9301 28.9041 93.7052 30.0207 93.2553 31.0041C92.8221 31.9874 92.1807 32.7624 91.3309 33.3291C90.4979 33.8957 89.4732 34.1791 88.257 34.1791C87.2739 34.1791 86.3992 33.9791 85.6328 33.5791C84.8664 33.1791 84.2833 32.6041 83.8834 31.8541V39.3291H81.5342ZM83.9084 27.7541C83.9084 28.5707 84.0583 29.3124 84.3582 29.9791C84.6748 30.6291 85.1163 31.1374 85.6828 31.5041C86.2659 31.8707 86.9574 32.0541 87.7571 32.0541C88.5569 32.0541 89.24 31.8707 89.8064 31.5041C90.3729 31.1207 90.8061 30.6041 91.106 29.9541C91.4226 29.3041 91.5809 28.5707 91.5809 27.7541C91.5809 26.9041 91.4226 26.1541 91.106 25.5041C90.8061 24.8541 90.3729 24.3457 89.8064 23.9791C89.24 23.6124 88.5569 23.4291 87.7571 23.4291C86.9574 23.4291 86.2659 23.6124 85.6828 23.9791C85.1163 24.3457 84.6748 24.8541 84.3582 25.5041C84.0583 26.1541 83.9084 26.9041 83.9084 27.7541Z" fill="white"/>
<path id="Vector_9" d="M98.6686 33.8541H96.3193V15.4541H98.6686V33.8541Z" fill="white"/>
<path id="Vector_10" d="M101.877 33.8541V21.6291H104.226V33.8541H101.877ZM103.027 18.7291C102.61 18.7291 102.243 18.5791 101.927 18.2791C101.627 17.9624 101.477 17.5957 101.477 17.1791C101.477 16.7457 101.627 16.3791 101.927 16.0791C102.243 15.7791 102.61 15.6291 103.027 15.6291C103.46 15.6291 103.826 15.7791 104.126 16.0791C104.426 16.3791 104.576 16.7457 104.576 17.1791C104.576 17.5957 104.426 17.9624 104.126 18.2791C103.826 18.5791 103.46 18.7291 103.027 18.7291Z" fill="white"/>
<path id="Vector_11" d="M106.087 21.6291H113.135V23.6041H106.087V21.6291ZM113.21 15.5541V17.5791C113.06 17.5791 112.893 17.5791 112.71 17.5791C112.543 17.5791 112.36 17.5791 112.16 17.5791C111.393 17.5791 110.877 17.7624 110.61 18.1291C110.361 18.4957 110.236 19.0124 110.236 19.6791V33.8541H107.886V19.6791C107.886 18.6791 108.053 17.8707 108.386 17.2541C108.736 16.6207 109.194 16.1624 109.761 15.8791C110.344 15.5957 111.01 15.4541 111.76 15.4541C111.993 15.4541 112.235 15.4624 112.485 15.4791C112.735 15.4957 112.976 15.5207 113.21 15.5541Z" fill="white"/>
<path id="Vector_12" d="M116.044 21.6291L120.343 33.5291L118.893 35.5291L113.57 21.6291H116.044ZM113.895 39.3291V37.4041H115.469C115.852 37.4041 116.202 37.3624 116.519 37.2791C116.835 37.2124 117.127 37.0541 117.394 36.8041C117.66 36.5707 117.885 36.1957 118.068 35.6791L123.217 21.6291H125.641L119.868 36.6041C119.451 37.6541 118.926 38.4124 118.293 38.8791C117.66 39.3457 116.877 39.5791 115.944 39.5791C115.561 39.5791 115.203 39.5541 114.869 39.5041C114.536 39.4707 114.211 39.4124 113.895 39.3291Z" fill="white"/>
</g>
</svg>
