<svg width="77" height="39" viewBox="0 0 77 39" fill="none" xmlns="http://www.w3.org/2000/svg">
<g id="Logo4" clip-path="url(#clip0_242_848)">
<path id="Vector" d="M9.3625 23.1581C12.7072 26.056 22.5923 30.8928 22.7521 30.9666C24.041 31.5883 22.0171 34.6337 21.0052 34.6126C19.2369 34.6126 8.61687 28.29 5.02713 25.1286C4.75018 27.4961 4.65046 29.8806 4.72884 32.2627C4.72884 33.053 3.45062 33.0741 2.21498 33.1479C0.979351 33.2216 0.0845886 33.1479 0.0206764 32.5261C-0.373447 20.2496 4.90993 8.0574 12.1852 2.20894C16.6804 -1.40552 24.3711 -0.878633 23.2313 5.992C22.2834 11.6719 16.723 19.5436 9.38375 23.1581H9.3625ZM5.94318 20.5131C14.0067 17.8575 21.3353 6.15007 18.9919 4.14789C16.6484 2.14571 8.85118 9.26923 5.94318 20.5131ZM75.4263 13.4211C74.4355 13.0734 73.0615 13.0523 72.8802 13.8848C71.6552 19.3434 69.5355 25.3288 67.0536 24.5701C65.9884 24.2329 65.3068 23.0737 67.6289 16.0345C67.8847 15.2442 67.2776 14.8648 66.3721 14.5276C65.4665 14.1904 64.4439 14.3485 64.2415 14.9069C61.7597 20.9556 59.7783 24.391 57.9888 24.0432C55.9863 23.6428 59.0008 17.3622 59.4481 16.456C59.8956 15.5497 58.7132 15.0861 58.1273 14.8543C57.5415 14.6224 56.5828 14.222 56.2526 14.8543C56.1247 15.065 55.8372 15.6446 55.6667 15.9818C55.7626 13.4844 53.3446 12.0512 50.7668 13.1577C46.0693 15.1809 43.5448 20.3234 43.2252 23.3583C43.0335 25.1391 43.5021 27.1413 45.2917 27.9843C48.6471 29.5544 52.3326 25.5817 53.3446 23.4952C53.2381 25.9927 54.8678 27.5312 56.9343 27.4574C59.7571 27.3626 61.7916 24.6333 62.3668 23.4215C61.9194 27.5417 65.8713 29.1119 68.7578 27.1097C67.0498 30.3728 64.8995 33.3898 62.3668 36.0773C61.6424 36.8676 62.6438 37.8582 63.006 38.1849C63.6024 38.7645 64.4757 39.2387 64.9874 38.8699C66.5318 37.8161 69.5679 34.4651 72.9445 27.9C74.8064 23.9407 76.1485 19.7619 76.9389 15.4654C77.1521 14.4117 76.8428 13.8953 75.4689 13.4211H75.4263ZM47.7736 24.1065C46.9108 23.5058 47.7736 20.8714 48.7749 19.3118C50.1596 17.0461 52.29 15.3706 53.2061 16.0872C54.6228 17.1409 52.6628 19.9335 51.6615 21.5879C50.6603 23.2423 48.8921 24.8862 47.7736 24.1065ZM36.1842 21.4509C32.9247 26.7936 28.7278 28.4585 25.8198 28.5428C24.9557 28.5843 24.0927 28.4416 23.2893 28.1245C22.4857 27.8073 21.7605 27.3231 21.1626 26.7046C20.5647 26.0861 20.108 25.3478 19.8236 24.5396C19.5391 23.7313 19.4335 22.8721 19.5138 22.02C19.6447 20.1034 20.3118 18.2605 21.4404 16.6973C22.569 15.1342 24.1148 13.9123 25.905 13.1682C29.4521 11.8615 32.6797 14.4222 31.9873 17.3833C31.8113 18.2613 31.4601 19.0957 30.9543 19.8378C30.4485 20.5799 29.7982 21.2149 29.0415 21.7054C28.2848 22.196 27.4368 22.5324 26.5471 22.695C25.6574 22.8576 24.7438 22.843 23.8599 22.6522C24.0409 24.7598 26.3205 25.9295 29.5374 24.2961C31.6678 23.2424 34.0325 21.1348 36.2694 15.8027C37.9311 11.7983 40.2959 3.56831 41.3504 1.74527C41.6594 1.21838 42.7565 1.36592 43.6939 1.81905C44.6312 2.27217 45.5899 2.9255 45.2917 3.74745C43.3476 8.60529 41.8537 13.6279 40.8285 18.7533C39.9893 22.9395 40.0947 27.2573 41.1373 31.3986C41.3717 32.2733 40.2533 32.8212 39.5716 32.9581C39.16 33.0791 38.7205 33.0689 38.3152 32.9289C37.9099 32.7889 37.5594 32.5264 37.3133 32.1784C35.5451 29.0171 35.7368 25.1286 36.1523 21.472L36.1842 21.4509ZM23.7853 20.2707C27.0661 21.3244 29.9741 17.7732 28.9621 16.3296C27.9502 14.8859 24.222 16.4771 23.7853 20.2707Z" fill="white"/>
</g>
<defs>
<clipPath id="clip0_242_848">
<rect width="77" height="39" fill="white"/>
</clipPath>
</defs>
</svg>
