<svg width="1279" height="910" viewBox="0 0 1279 910" fill="none" xmlns="http://www.w3.org/2000/svg">
<path fill-rule="evenodd" clip-rule="evenodd" d="M396.614 132.785C484.931 139.303 575.94 133.687 646.237 187.545C726.016 248.667 775.663 338.335 793.906 437.168C816.821 561.306 858.502 721.799 759.256 799.809C659.511 878.211 523.482 749.954 396.614 749.447C270.871 748.945 128.52 883.003 36.8583 796.923C-54.2757 711.34 50.6113 561.46 64.0813 437.168C75.0056 336.366 32.4193 216.224 107.21 147.764C181.283 79.9614 296.467 125.394 396.614 132.785Z" fill="#A4AEF7" fill-opacity="0.08"/>
<path fill-rule="evenodd" clip-rule="evenodd" d="M846.69 100.521C966.75 69.1056 1106.61 99.8453 1193.98 187.977C1281.14 275.889 1281.86 411.549 1277.7 535.272C1273.73 653.602 1262.6 784.48 1171.41 859.99C1084.32 932.105 958.399 909.67 846.69 892.16C755.807 877.914 679.767 831.917 609.974 771.987C531.965 705.004 423.26 637.796 431.062 535.272C438.79 433.7 573.058 405.663 643.45 332.032C717.219 254.87 743.415 127.544 846.69 100.521Z" fill="#495CEF" fill-opacity="0.08"/>
<path fill-rule="evenodd" clip-rule="evenodd" d="M548.493 19.6225C669.351 -11.7001 827.672 -15.4884 902.973 84.0979C977.476 182.629 876.285 315.541 865.279 438.578C856.111 541.078 903.471 650.326 844.762 734.846C778.218 830.646 664.302 880.707 548.493 894.634C415.896 910.581 250.885 923.04 171.224 815.847C92.8428 710.377 173.204 564.851 209.57 438.578C233.156 356.679 286.333 296.28 339.936 230.02C404.501 150.209 449.12 45.3772 548.493 19.6225Z" fill="#B226C5" fill-opacity="0.08"/>
</svg>
