<svg width="32" height="33" viewBox="0 0 32 33" fill="none" xmlns="http://www.w3.org/2000/svg">
<g id="Instagram" clipPath="url(#clip0_506_237)">
<path id="Vector" d="M9.46531 0.265137C4.31998 0.265137 0.134583 4.45441 0.134583 9.60107V22.9344C0.134583 28.0797 4.32385 32.2651 9.47052 32.2651H22.8039C27.9492 32.2651 32.1346 28.0759 32.1346 22.9292V9.59587C32.1346 4.45053 27.9453 0.265137 22.7986 0.265137H9.46531ZM25.4679 5.59847C26.2039 5.59847 26.8013 6.1958 26.8013 6.9318C26.8013 7.6678 26.2039 8.26514 25.4679 8.26514C24.7319 8.26514 24.1346 7.6678 24.1346 6.9318C24.1346 6.1958 24.7319 5.59847 25.4679 5.59847ZM16.1346 8.26514C20.5466 8.26514 24.1346 11.8531 24.1346 16.2651C24.1346 20.6771 20.5466 24.2651 16.1346 24.2651C11.7226 24.2651 8.13458 20.6771 8.13458 16.2651C8.13458 11.8531 11.7226 8.26514 16.1346 8.26514ZM16.1346 10.9318C14.7201 10.9318 13.3635 11.4937 12.3633 12.4939C11.3632 13.4941 10.8012 14.8506 10.8012 16.2651C10.8012 17.6796 11.3632 19.0362 12.3633 20.0364C13.3635 21.0366 14.7201 21.5985 16.1346 21.5985C17.5491 21.5985 18.9056 21.0366 19.9058 20.0364C20.906 19.0362 21.4679 17.6796 21.4679 16.2651C21.4679 14.8506 20.906 13.4941 19.9058 12.4939C18.9056 11.4937 17.5491 10.9318 16.1346 10.9318Z" fill="#B7BAC8"/>
</g>
<defs>
<clipPath id="clip0_506_237">
<rect width="32" height="32" fill="white" transform="translate(0 0.265137)"/>
</clipPath>
</defs>
</svg>
