<svg width="20" height="20" viewBox="0 0 20 20" fill="none" xmlns="http://www.w3.org/2000/svg">
<g id="linkedin-svgrepo-com 1" clipPath="url(#clip0_108_712)">
<g id="XMLID_801_">
<path id="XMLID_802_" d="M4.655 6.43408H0.639963C0.46177 6.43408 0.317383 6.57853 0.317383 6.75666V19.6552C0.317383 19.8334 0.46177 19.9778 0.639963 19.9778H4.655C4.83319 19.9778 4.97758 19.8334 4.97758 19.6552V6.75666C4.97758 6.57853 4.83319 6.43408 4.655 6.43408Z" fill="#CDD2F9"/>
<path id="XMLID_803_" d="M2.64942 0.0219727C1.18852 0.0219727 0 1.2092 0 2.66849C0 4.12842 1.18852 5.3161 2.64942 5.3161C4.10916 5.3161 5.29671 4.12836 5.29671 2.66849C5.29677 1.2092 4.10916 0.0219727 2.64942 0.0219727Z" fill="#CDD2F9"/>
<path id="XMLID_804_" d="M14.8675 6.11377C13.255 6.11377 12.0629 6.807 11.3399 7.59467V6.75693C11.3399 6.5788 11.1955 6.43435 11.0173 6.43435H7.17219C6.994 6.43435 6.84961 6.5788 6.84961 6.75693V19.6555C6.84961 19.8337 6.994 19.9781 7.17219 19.9781H11.1784C11.3566 19.9781 11.501 19.8337 11.501 19.6555V13.2737C11.501 11.1232 12.0852 10.2854 13.5843 10.2854C15.2169 10.2854 15.3466 11.6285 15.3466 13.3843V19.6556C15.3466 19.8338 15.491 19.9782 15.6692 19.9782H19.677C19.8552 19.9782 19.9995 19.8338 19.9995 19.6556V12.5805C19.9995 9.38274 19.3898 6.11377 14.8675 6.11377Z" fill="#CDD2F9"/>
</g>
</g>
<defs>
<clipPath id="clip0_108_712">
<rect width="20" height="20" fill="white"/>
</clipPath>
</defs>
</svg>
