<svg width="32" height="33" viewBox="0 0 32 33" fill="none" xmlns="http://www.w3.org/2000/svg">
<g id="YouTube" clipPath="url(#clip0_506_529)">
<path id="Vector" d="M16.1348 2.26514C10.9828 2.26514 4.29588 3.556 4.29588 3.556L4.27906 3.57523C1.93257 3.95051 0.134827 5.96683 0.134827 8.41898V15.8036V15.806V23.1882V23.1906C0.137116 24.3617 0.55682 25.4937 1.31858 26.3832C2.08034 27.2727 3.13425 27.8616 4.29108 28.044L4.29588 28.0512C4.29588 28.0512 10.9828 29.3445 16.1348 29.3445C21.2868 29.3445 27.9738 28.0512 27.9738 28.0512L27.9762 28.0488C29.1343 27.8668 30.1894 27.2775 30.9517 26.3869C31.7141 25.4963 32.1336 24.3629 32.1348 23.1906V23.1882V15.806V15.8036V8.41898C32.1331 7.24745 31.7137 6.11493 30.9519 5.2249C30.19 4.33488 29.1358 3.74569 27.9786 3.56321L27.9738 3.556C27.9738 3.556 21.2868 2.26514 16.1348 2.26514ZM12.4425 10.1401L22.2887 15.8036L12.4425 21.4671V10.1401Z" fill="#B7BAC8"/>
</g>
<defs>
<clipPath id="clip0_506_529">
<rect width="32" height="32" fill="white" transform="translate(0 0.265137)"/>
</clipPath>
</defs>
</svg>
