<?xml version="1.0" standalone="no"?>
<!DOCTYPE svg PUBLIC "-//W3C//DTD SVG 20010904//EN"
 "http://www.w3.org/TR/2001/REC-SVG-20010904/DTD/svg10.dtd">
<svg version="1.0" xmlns="http://www.w3.org/2000/svg"
 width="744.000000pt" height="744.000000pt" viewBox="0 0 744.000000 744.000000"
 preserveAspectRatio="xMidYMid meet">
<metadata>
Created by potrace 1.14, written by Peter Selinger 2001-2017
</metadata>
<g transform="translate(0.000000,744.000000) scale(0.100000,-0.100000)"
fill="#000000" stroke="none">
<path d="M2909 5196 c-2 -2 -33 -7 -69 -10 -63 -6 -91 -10 -155 -21 -16 -3
-46 -8 -65 -11 -77 -12 -217 -52 -340 -96 -488 -176 -884 -547 -1019 -957 -12
-35 -21 -66 -21 -68 0 -1 43 -3 95 -3 l95 0 25 49 c75 148 234 305 419 413
195 114 466 207 676 233 30 4 57 8 60 10 11 7 215 18 310 18 92 0 279 -12 290
-18 3 -1 28 -5 55 -9 174 -21 374 -81 552 -166 527 -251 750 -673 573 -1085
-46 -108 -173 -265 -280 -345 -25 -19 -47 -37 -50 -40 -13 -15 -148 -94 -231
-135 -147 -72 -348 -137 -499 -161 -19 -3 -46 -7 -60 -10 -14 -2 -52 -7 -85
-10 -33 -4 -67 -8 -75 -9 -13 -2 -15 -38 -17 -250 l-2 -248 132 6 c112 5 189
15 348 42 14 3 69 16 122 30 606 157 1077 550 1231 1027 22 70 30 105 51 228
9 48 8 192 0 265 -45 397 -298 761 -705 1015 -249 156 -534 252 -900 306 -47
6 -455 15 -461 10z"/>
<path d="M5970 4705 c-90 -32 -218 -108 -375 -223 -49 -37 -92 -69 -95 -72 -3
-3 -36 -32 -75 -65 -96 -82 -185 -171 -228 -227 -36 -48 -79 -163 -95 -253 -9
-56 -8 -210 2 -265 33 -173 123 -338 261 -476 137 -138 278 -222 534 -319 149
-56 195 -63 245 -40 75 36 71 -21 71 935 l0 855 -26 56 c-15 32 -40 66 -59 79
-38 27 -108 34 -160 15z"/>
<path d="M2085 4001 c-11 -5 -31 -21 -45 -36 l-25 -27 -3 -256 c-2 -283 -1
-290 58 -329 l34 -24 469 3 469 3 34 37 c32 36 34 42 35 110 3 463 3 465 -49
503 -26 19 -44 20 -492 22 -256 1 -474 -2 -485 -6z"/>
</g>
</svg>
